<svg width="32" height="33" viewBox="0 0 32 33" fill="none" xmlns="http://www.w3.org/2000/svg">
<g id="Frame">
<path id="iconFill" d="M27.5557 14.6211H4.44455C3.95363 14.6211 3.55566 15.0191 3.55566 15.51V17.2878C3.55566 17.7787 3.95363 18.1766 4.44455 18.1766H27.5557C28.0466 18.1766 28.4446 17.7787 28.4446 17.2878V15.51C28.4446 15.0191 28.0466 14.6211 27.5557 14.6211Z" fill="#222222"/>
<path id="iconFill_2" d="M27.5557 5.73242H4.44455C3.95363 5.73242 3.55566 6.13039 3.55566 6.62131V8.39909C3.55566 8.89001 3.95363 9.28798 4.44455 9.28798H27.5557C28.0466 9.28798 28.4446 8.89001 28.4446 8.39909V6.62131C28.4446 6.13039 28.0466 5.73242 27.5557 5.73242Z" fill="#222222"/>
<path id="iconFill_3" d="M27.5557 23.5098H4.44455C3.95363 23.5098 3.55566 23.9077 3.55566 24.3987V26.1764C3.55566 26.6674 3.95363 27.0653 4.44455 27.0653H27.5557C28.0466 27.0653 28.4446 26.6674 28.4446 26.1764V24.3987C28.4446 23.9077 28.0466 23.5098 27.5557 23.5098Z" fill="#222222"/>
</g>
</svg>
